<?xml version="1.0" encoding="UTF-8"?>
<svg width="16px" height="17px" viewBox="0 0 16 17" version="1.1" xmlns="http://www.w3.org/2000/svg" xmlns:xlink="http://www.w3.org/1999/xlink">
    <g id="Tefteri" stroke="none" stroke-width="1" fill="none" fill-rule="evenodd">
        <g id="19.20.00---Tefteri---Edit-Copy" transform="translate(-782.000000, -266.000000)" fill="#3C4858">
            <g id="Group-2" transform="translate(296.000000, 176.000000)">
                <g id="Group-9" transform="translate(56.085938, 89.000000)">
                    <g id="add" transform="translate(429.914062, 1.140625)">
                        <path d="M15.1273821,6.8817561 L9.11365854,6.8817561 L9.11365854,0.868 C9.11365854,0.59404878 8.74165854,3.25203252e-05 7.99769106,3.25203252e-05 C7.25372358,3.25203252e-05 6.88172358,0.594081301 6.88172358,0.868 L6.88172358,6.88178862 L0.86796748,6.88178862 C0.59404878,6.8817561 0,7.2537561 0,7.99769106 C0,8.74162602 0.59404878,9.11365854 0.86796748,9.11365854 L6.8817561,9.11365854 L6.8817561,15.1274472 C6.8817561,15.4013333 7.25372358,15.9954146 7.99772358,15.9954146 C8.74172358,15.9954146 9.11369106,15.4013333 9.11369106,15.1274472 L9.11369106,9.11365854 L15.1274797,9.11365854 C15.4013659,9.11365854 15.9954472,8.74169106 15.9954472,7.99769106 C15.9954472,7.25369106 15.4013008,6.8817561 15.1273821,6.8817561 Z" id="Path"></path>
                    </g>
                </g>
            </g>
        </g>
    </g>
</svg>