<?xml version="1.0" encoding="UTF-8"?>
<svg width="18px" height="17px" viewBox="0 0 18 17" version="1.1" xmlns="http://www.w3.org/2000/svg" xmlns:xlink="http://www.w3.org/1999/xlink">
    <g id="Tefteri" stroke="none" stroke-width="1" fill="none" fill-rule="evenodd">
        <g id="19.00.00---Tefteri---Show" transform="translate(-563.000000, -266.000000)" fill="#3C4858">
            <g id="Group-9" transform="translate(352.085938, 265.000000)">
                <g id="noun_Align-Center_1654831" transform="translate(210.914062, 1.140625)">
                    <path d="M0.65,1.9 L16.525,1.9 C16.8,1.9 17.025,1.675 17.025,1.4 L17.025,0.525 C17.025,0.25 16.8,0.025 16.525,0.025 L0.65,0.025 C0.375,0.025 0.15,0.25 0.15,0.525 L0.15,1.4 C0.15,1.675 0.375,1.9 0.65,1.9 C0.65,1.9 0.65,1.9 0.65,1.9 Z" id="Path"></path>
                    <path d="M11.85,14.1 L5.35,14.1 C5.075,14.1 4.85,14.325 4.85,14.6 L4.85,15.475 C4.85,15.75 5.075,15.975 5.35,15.975 L11.85,15.975 C12.125,15.975 12.35,15.75 12.35,15.475 L12.35,14.6 C12.35,14.325 12.125,14.1 11.85,14.1 Z" id="Path"></path>
                    <path d="M3.475,4.725 C3.2,4.725 2.975,4.95 2.975,5.225 L2.975,6.1 C2.975,6.375 3.2,6.6 3.475,6.6 L13.725,6.6 C14,6.6 14.225,6.375 14.225,6.1 L14.225,5.225 C14.225,4.95 14,4.725 13.725,4.725 L3.475,4.725 Z" id="Path"></path>
                    <path d="M0.65,11.275 L16.525,11.275 C16.8,11.275 17.025,11.05 17.025,10.775 L17.025,9.9 C17.025,9.625 16.8,9.4 16.525,9.4 L0.65,9.4 C0.375,9.4 0.15,9.625 0.15,9.9 L0.15,10.775 C0.15,11.05 0.375,11.275 0.65,11.275 C0.65,11.275 0.65,11.275 0.65,11.275 Z" id="Path"></path>
                </g>
            </g>
        </g>
    </g>
</svg>