<?xml version="1.0" encoding="UTF-8"?>
<svg width="17px" height="17px" viewBox="0 0 17 17" version="1.1" xmlns="http://www.w3.org/2000/svg" xmlns:xlink="http://www.w3.org/1999/xlink">
    <g id="Tefteri" stroke="none" stroke-width="1" fill="none" fill-rule="evenodd">
        <g id="19.00.00---Tefteri---Show" transform="translate(-597.000000, -266.000000)" fill="#3C4858">
            <g id="Group-9" transform="translate(352.085938, 265.000000)">
                <g id="noun_Align-Right_1654829" transform="translate(244.914062, 1.140625)">
                    <path d="M16.45,4.725 L4.3,4.725 C4.025,4.725 3.8,4.95 3.8,5.225 L3.8,6.1 C3.8,6.375 4.025,6.6 4.3,6.6 L16.425,6.6 C16.7,6.6 16.925,6.375 16.925,6.1 L16.925,5.225 C16.95,4.95 16.725,4.725 16.45,4.725 Z" id="Path"></path>
                    <path d="M16.45,14.1 L8.05,14.1 C7.775,14.1 7.55,14.325 7.55,14.6 L7.55,15.475 C7.55,15.75 7.775,15.975 8.05,15.975 L16.425,15.975 C16.7,15.975 16.925,15.75 16.925,15.475 L16.925,14.6 C16.95,14.325 16.725,14.1 16.45,14.1 Z" id="Path"></path>
                    <path d="M0.55,1.9 L16.425,1.9 C16.7,1.9 16.925,1.675 16.925,1.4 L16.925,0.525 C16.925,0.25 16.7,0.025 16.425,0.025 L0.55,0.025 C0.275,0.025 0.05,0.25 0.05,0.525 L0.05,1.4 C0.05,1.675 0.275,1.9 0.55,1.9 C0.55,1.9 0.55,1.9 0.55,1.9 Z" id="Path"></path>
                    <path d="M0.55,11.275 L16.425,11.275 C16.7,11.275 16.925,11.05 16.925,10.775 L16.925,9.9 C16.925,9.625 16.7,9.4 16.425,9.4 L0.55,9.4 C0.275,9.4 0.05,9.625 0.05,9.9 L0.05,10.775 C0.05,11.05 0.275,11.275 0.55,11.275 C0.55,11.275 0.55,11.275 0.55,11.275 Z" id="Path"></path>
                </g>
            </g>
        </g>
    </g>
</svg>