<?xml version="1.0" encoding="UTF-8"?>
<svg width="17px" height="17px" viewBox="0 0 17 17" version="1.1" xmlns="http://www.w3.org/2000/svg" xmlns:xlink="http://www.w3.org/1999/xlink">
    <g id="Tefteri" stroke="none" stroke-width="1" fill="none" fill-rule="evenodd">
        <g id="19.00.00---Tefteri---Show" transform="translate(-530.000000, -266.000000)" fill="#3C4858">
            <g id="Group-9" transform="translate(352.085938, 265.000000)">
                <g id="noun_Align-Left_1654832" transform="translate(177.914062, 1.140625)">
                    <path d="M0.55,6.6 L12.675,6.6 C12.95,6.6 13.175,6.375 13.175,6.1 L13.175,5.225 C13.175,4.95 12.95,4.725 12.675,4.725 L0.55,4.725 C0.275,4.725 0.05,4.95 0.05,5.225 L0.05,6.1 C0.05,6.375 0.275,6.6 0.55,6.6 C0.55,6.6 0.55,6.6 0.55,6.6 Z" id="Path"></path>
                    <path d="M0.55,1.9 L16.425,1.9 C16.7,1.9 16.925,1.675 16.925,1.4 L16.925,0.525 C16.925,0.25 16.7,0.025 16.425,0.025 L0.55,0.025 C0.275,0.025 0.05,0.25 0.05,0.525 L0.05,1.4 C0.05,1.675 0.275,1.9 0.55,1.9 C0.55,1.9 0.55,1.9 0.55,1.9 Z" id="Path"></path>
                    <path d="M0.55,15.975 L8.925,15.975 C9.2,15.975 9.425,15.75 9.425,15.475 L9.425,14.6 C9.425,14.325 9.2,14.1 8.925,14.1 L0.55,14.1 C0.275,14.1 0.05,14.325 0.05,14.6 L0.05,15.475 C0.05,15.75 0.275,15.975 0.55,15.975 C0.55,15.975 0.55,15.975 0.55,15.975 Z" id="Path"></path>
                    <path d="M0.55,11.275 L16.425,11.275 C16.7,11.275 16.925,11.05 16.925,10.775 L16.925,9.9 C16.925,9.625 16.7,9.4 16.425,9.4 L0.55,9.4 C0.275,9.4 0.05,9.625 0.05,9.9 L0.05,10.775 C0.05,11.05 0.275,11.275 0.55,11.275 C0.55,11.275 0.55,11.275 0.55,11.275 Z" id="Path"></path>
                </g>
            </g>
        </g>
    </g>
</svg>