<?xml version="1.0" encoding="UTF-8"?>
<svg width="10px" height="17px" viewBox="0 0 10 17" version="1.1" xmlns="http://www.w3.org/2000/svg" xmlns:xlink="http://www.w3.org/1999/xlink">
    <g id="Tefteri" stroke="none" stroke-width="1" fill="none" fill-rule="evenodd">
        <g id="19.00.00---Tefteri---Show" transform="translate(-387.000000, -266.000000)" fill="#3C4858" fill-rule="nonzero">
            <g id="Group-9" transform="translate(352.085938, 265.000000)">
                <g id="noun_bold_115184" transform="translate(39.914062, 9.140625) scale(1, -1) translate(-39.914062, -9.140625) translate(34.914062, 1.140625)">
                    <path d="M8.297,8.0005 C9.326,7.176 10,5.923 10,4.5 C10,2.0145 7.9845,0 5.5,0 C5.328,0 2,0 2,0 L0,0 L0,16 L2,16 C2,16 5.328,16 5.5,16 C7.9845,16 10,13.9855 10,11.5 C10,10.078 9.326,8.825 8.297,8.0005 Z M2,2 C2,2 5.328,2 5.5,2 C6.881,2 8,3.119 8,4.5 C8,5.881 6.881,7 5.5,7 C5.328,7 2,7 2,7 L2,2 Z M5.5,14 C5.328,14 2,14 2,14 L2,9 C2,9 5.328,9 5.5,9 C6.881,9 8,10.119 8,11.5 C8,12.881 6.881,14 5.5,14 Z" id="Shape"></path>
                </g>
            </g>
        </g>
    </g>
</svg>