<?xml version="1.0" encoding="UTF-8"?>
<svg width="16px" height="14px" viewBox="0 0 16 14" version="1.1" xmlns="http://www.w3.org/2000/svg" xmlns:xlink="http://www.w3.org/1999/xlink">
    <g id="Tefteri" stroke="none" stroke-width="1" fill="none" fill-rule="evenodd">
        <g id="19.20.00---Tefteri---Edit-Copy" transform="translate(-615.000000, -393.000000)" fill="#3C4858">
            <g id="Group-12" transform="translate(606.000000, 291.000000)">
                <g id="Group-3" transform="translate(8.376953, 8.000000)">
                    <g id="noun_List_1654834" transform="translate(1.000000, 94.000000)">
                        <path d="M5.0623719,13.0874993 L14.5561497,13.0874993 C14.8108608,13.0874993 15.0192608,12.8906993 15.0192608,12.650166 L15.0192608,11.8848327 C15.0192608,11.6442993 14.8108608,11.4474993 14.5561497,11.4474993 L5.0623719,11.4474993 C4.80766079,11.4474993 4.59926079,11.6442993 4.59926079,11.8848327 L4.59926079,12.650166 C4.59926079,12.8906993 4.80766079,13.0874993 5.0623719,13.0874993 Z" id="Path"></path>
                        <path d="M5.0623719,7.75884035 L14.5561497,7.75884035 C14.8108608,7.75884035 15.0192608,7.56204035 15.0192608,7.32150701 L15.0192608,6.55617368 C15.0192608,6.31564035 14.8108608,6.11884035 14.5561497,6.11884035 L5.0623719,6.11884035 C4.80766079,6.11884035 4.59926079,6.31564035 4.59926079,6.55617368 L4.59926079,7.32150701 C4.59926079,7.56204035 4.80766079,7.75884035 5.0623719,7.75884035 C5.0623719,7.75884035 5.0623719,7.75884035 5.0623719,7.75884035 Z" id="Path"></path>
                        <path d="M5.0623719,2.45044243 L14.5561497,2.45044243 C14.8108608,2.45044243 15.0192608,2.25364243 15.0192608,2.0131091 L15.0192608,1.24777576 C15.0192608,1.00724243 14.8108608,0.81044243 14.5561497,0.81044243 L5.0623719,0.81044243 C4.80766079,0.81044243 4.59926079,1.00724243 4.59926079,1.24777576 L4.59926079,2.0131091 C4.59926079,2.25364243 4.80766079,2.45044243 5.0623719,2.45044243 C5.0623719,2.45044243 5.0623719,2.45044243 5.0623719,2.45044243 Z" id="Path"></path>
                        <circle id="Oval" cx="1.58036274" cy="12.1971586" r="1.51957956"></circle>
                        <circle id="Oval" cx="1.58036274" cy="6.88876065" r="1.51957956"></circle>
                        <circle id="Oval" cx="1.58036274" cy="1.56010168" r="1.51957956"></circle>
                    </g>
                </g>
            </g>
        </g>
    </g>
</svg>