<?xml version="1.0" encoding="UTF-8"?>
<svg width="16px" height="16px" viewBox="0 0 16 16" version="1.1" xmlns="http://www.w3.org/2000/svg" xmlns:xlink="http://www.w3.org/1999/xlink">
    <g id="Tefteri" stroke="none" stroke-width="1" fill="none" fill-rule="evenodd">
        <g id="19.20.00---Tefteri---Edit-Copy" transform="translate(-615.000000, -299.000000)" fill="#3C4858">
            <g id="Group-12" transform="translate(606.000000, 291.000000)">
                <g id="Group-3" transform="translate(8.376953, 8.000000)">
                    <g id="Group-7" transform="translate(0.876953, 0.000000)">
                        <g id="noun_ordered-list_1107454">
                            <polygon id="Path" points="0.770387692 0.225944615 2.25115077 0.225944615 2.25115077 3.91342769 1.46630154 3.91342769 1.46630154 0.953083077 0.770387692 0.953083077"></polygon>
                            <path d="M1.64903385,7.61538462 C1.73358796,7.50652246 1.78192215,7.37391115 1.78724923,7.23617231 C1.79061293,7.12208418 1.74719854,7.01157847 1.66707692,6.93028923 C1.58599083,6.84763536 1.47386568,6.80291932 1.35815385,6.80708923 C1.06979033,6.84668361 0.822437628,7.03265094 0.704307692,7.29867077 L0.0504861538,6.91165538 C0.194599291,6.6745804 0.386078228,6.46979012 0.612947692,6.31009231 C0.846529216,6.16625019 1.11769423,6.09531903 1.39179077,6.10636308 C1.69632163,6.10221192 1.99195781,6.20901682 2.22352,6.40684308 C2.46373873,6.60918291 2.59649356,6.9115184 2.58290462,7.22530462 C2.58255522,7.4152414 2.53285297,7.60182737 2.43867077,7.76676923 C2.28872879,8.00780537 2.1103673,8.22995146 1.90742154,8.42843077 L1.24876308,9.11352615 L2.69230769,9.11352615 L2.69230769,9.84615385 L0.112984615,9.84615385 L0.112984615,9.23918769 L1.18630154,8.14062769 C1.35311323,7.97703231 1.50776779,7.80148537 1.64903385,7.61538462 Z" id="Path"></path>
                            <path d="M0.28,12.7668308 L0.28,12.0709169 L2.51923692,12.0709169 L2.51923692,12.63584 L1.77169231,13.4891815 C2.30251697,13.5515222 2.70016537,14.0052773 2.69230769,14.5396923 C2.70967464,14.8849697 2.56527587,15.2186456 2.30168615,15.4423385 C2.01976451,15.6677934 1.66591804,15.7838746 1.30523077,15.7692308 C0.86142902,15.7558282 0.432535666,15.6060035 0.0769230769,15.3401477 L0.411052308,14.6910769 C0.675076571,14.9053566 0.99857107,15.0333271 1.33773538,15.0576615 C1.48233489,15.0635476 1.62479838,15.0212718 1.74278154,14.9374646 C1.84999791,14.8550728 1.90978535,14.7251827 1.90264615,14.5901538 C1.90694982,14.4461008 1.83766427,14.3097557 1.71876923,14.2283077 C1.56812421,14.1311743 1.39049777,14.084452 1.21155692,14.0948923 C1.04538751,14.1048958 0.881485597,14.1384834 0.724775385,14.1946462 L0.724775385,13.5925538 L1.42550154,12.7668308 L0.28,12.7668308 Z" id="Path"></path>
                        </g>
                        <path d="M5.719408,14.7228564 L15.2131622,14.7228564 C15.4678727,14.7228564 15.6762721,14.5260564 15.6762721,14.285523 L15.6762721,13.5201897 C15.6762721,13.2796564 15.4678727,13.0828564 15.2131622,13.0828564 L5.719408,13.0828564 C5.46469753,13.0828564 5.25629804,13.2796564 5.25629804,13.5201897 L5.25629804,14.285523 C5.25629804,14.5260564 5.46469753,14.7228564 5.719408,14.7228564 Z" id="Path"></path>
                        <path d="M5.719408,8.63296039 L15.2131622,8.63296039 C15.4678727,8.63296039 15.6762721,8.43616039 15.6762721,8.19562706 L15.6762721,7.43029373 C15.6762721,7.18976039 15.4678727,6.99296039 15.2131622,6.99296039 L5.719408,6.99296039 C5.46469753,6.99296039 5.25629804,7.18976039 5.25629804,7.43029373 L5.25629804,8.19562706 C5.25629804,8.43616039 5.46469753,8.63296039 5.719408,8.63296039 C5.719408,8.63296039 5.719408,8.63296039 5.719408,8.63296039 Z" id="Path"></path>
                        <path d="M5.719408,2.56621992 L15.2131622,2.56621992 C15.4678727,2.56621992 15.6762721,2.36941992 15.6762721,2.12888659 L15.6762721,1.36355325 C15.6762721,1.12301992 15.4678727,0.92621992 15.2131622,0.92621992 L5.719408,0.92621992 C5.46469753,0.92621992 5.25629804,1.12301992 5.25629804,1.36355325 L5.25629804,2.12888659 C5.25629804,2.36941992 5.46469753,2.56621992 5.719408,2.56621992 C5.719408,2.56621992 5.719408,2.56621992 5.719408,2.56621992 Z" id="Path"></path>
                    </g>
                </g>
            </g>
        </g>
    </g>
</svg>