<?xml version="1.0" encoding="UTF-8"?>
<svg width="16px" height="15px" viewBox="0 0 16 15" version="1.1" xmlns="http://www.w3.org/2000/svg" xmlns:xlink="http://www.w3.org/1999/xlink">
    <g id="Tefteri" stroke="none" stroke-width="1" fill="none" fill-rule="evenodd">
        <g id="19.20.00---Tefteri---Edit-Copy" transform="translate(-615.000000, -362.000000)" fill="#3C4858">
            <g id="Group-12" transform="translate(606.000000, 291.000000)">
                <g id="Group-3" transform="translate(8.376953, 8.000000)">
                    <g id="Group-10" transform="translate(0.000000, 63.000000)">
                        <g id="Group-5" transform="translate(6.000000, 0.000000)">
                            <path d="M0.59636113,14.7228564 L10.0901153,14.7228564 C10.3448258,14.7228564 10.5532253,14.5260564 10.5532253,14.285523 L10.5532253,13.5201897 C10.5532253,13.2796564 10.3448258,13.0828564 10.0901153,13.0828564 L0.59636113,13.0828564 C0.341650652,13.0828564 0.13325117,13.2796564 0.13325117,13.5201897 L0.13325117,14.285523 C0.13325117,14.5260564 0.341650652,14.7228564 0.59636113,14.7228564 Z" id="Path"></path>
                            <path d="M0.59636113,8.63296039 L10.0901153,8.63296039 C10.3448258,8.63296039 10.5532253,8.43616039 10.5532253,8.19562706 L10.5532253,7.43029373 C10.5532253,7.18976039 10.3448258,6.99296039 10.0901153,6.99296039 L0.59636113,6.99296039 C0.341650652,6.99296039 0.13325117,7.18976039 0.13325117,7.43029373 L0.13325117,8.19562706 C0.13325117,8.43616039 0.341650652,8.63296039 0.59636113,8.63296039 C0.59636113,8.63296039 0.59636113,8.63296039 0.59636113,8.63296039 Z" id="Path"></path>
                            <path d="M0.59636113,2.58723191 L10.0901153,2.58723191 C10.3448258,2.58723191 10.5532253,2.39043191 10.5532253,2.14989858 L10.5532253,1.38456524 C10.5532253,1.14403191 10.3448258,0.94723191 10.0901153,0.94723191 L0.59636113,0.94723191 C0.341650652,0.94723191 0.13325117,1.14403191 0.13325117,1.38456524 L0.13325117,2.14989858 C0.13325117,2.39043191 0.341650652,2.58723191 0.59636113,2.58723191 C0.59636113,2.58723191 0.59636113,2.58723191 0.59636113,2.58723191 Z" id="Path"></path>
                        </g>
                        <g id="Group-6" transform="translate(0.000000, 1.000000)" fill-rule="nonzero">
                            <rect id="Rectangle" x="0.876953125" y="0.315563085" width="3.33447266" height="1" rx="0.3"></rect>
                            <rect id="Rectangle" x="0.876953125" y="6.36129157" width="3.33447266" height="1" rx="0.3"></rect>
                            <rect id="Rectangle" x="0.876953125" y="12.4511875" width="3.33447266" height="1" rx="0.3"></rect>
                        </g>
                    </g>
                </g>
            </g>
        </g>
    </g>
</svg>