<?xml version="1.0" encoding="UTF-8"?>
<svg width="16px" height="15px" viewBox="0 0 16 15" version="1.1" xmlns="http://www.w3.org/2000/svg" xmlns:xlink="http://www.w3.org/1999/xlink">
    <g id="Tefteri" stroke="none" stroke-width="1" fill="none" fill-rule="evenodd">
        <g id="19.20.00---Tefteri---Edit-Copy" transform="translate(-615.000000, -331.000000)" fill="#3C4858">
            <g id="Group-12" transform="translate(606.000000, 291.000000)">
                <g id="Group-3" transform="translate(8.376953, 8.000000)">
                    <g id="Group-8" transform="translate(0.876953, 32.000000)">
                        <g id="clipboard" transform="translate(0.000000, 0.951188)">
                            <path d="M3.51828947,5.72775963 C3.34640351,5.54657542 3.06105263,5.53635612 2.87666667,5.7048649 L1.41013158,7.10262805 L0.791447368,6.46100525 C0.619561404,6.27982104 0.334210526,6.2696456 0.149824561,6.43811051 C-0.0276754386,6.62407542 -0.0276754386,6.91666314 0.149824561,7.10262805 L1.08929825,8.06504034 C1.17061404,8.15609297 1.28807018,8.20644384 1.41008772,8.20254034 C1.53096491,8.20082981 1.64627193,8.15139998 1.73087719,8.06504034 L3.51820175,6.36938244 C3.69539474,6.20683858 3.70723684,5.93139998 3.54464912,5.75425086 C3.53631579,5.74499648 3.5275,5.73618069 3.51828947,5.72775963 Z" id="Path"></path>
                            <path d="M3.51828947,0.174429825 C3.34640351,-0.00675438596 3.06105263,-0.0169736842 2.87666667,0.151535088 L1.41013158,1.54929825 L0.791447368,0.907675439 C0.619561404,0.726491228 0.334210526,0.71627193 0.149824561,0.884780702 C-0.0276754386,1.07074561 -0.0276754386,1.36333333 0.149824561,1.54929825 L1.08929825,2.51171053 C1.17061404,2.60276316 1.28807018,2.65311404 1.41008772,2.64921053 C1.53096491,2.6475 1.64627193,2.59807018 1.73087719,2.51171053 L3.51820175,0.816052632 C3.69539474,0.653508772 3.70723684,0.378070175 3.54464912,0.200921053 C3.53631579,0.191666667 3.5275,0.182850877 3.51828947,0.174429825 Z" id="Path"></path>
                            <path d="M3.51828947,11.5070175 C3.34640351,11.3258333 3.06105263,11.3156579 2.87666667,11.4841228 L1.41013158,12.881886 L0.791447368,12.2402632 C0.619561404,12.0590789 0.334210526,12.0489035 0.149824561,12.2173684 C-0.0276754386,12.4033333 -0.0276754386,12.6959211 0.149824561,12.881886 L1.08929825,13.8442982 C1.17061404,13.9353509 1.28807018,13.9857018 1.41008772,13.9817982 C1.53096491,13.9800877 1.64627193,13.9306579 1.73087719,13.8442982 L3.51820175,12.1486404 C3.69539474,11.9860965 3.70723684,11.7106579 3.54464912,11.5335088 C3.53631579,11.5242982 3.5275,11.5154825 3.51828947,11.5070175 Z" id="Path"></path>
                        </g>
                        <path d="M5.719408,14.7228564 L15.2131622,14.7228564 C15.4678727,14.7228564 15.6762721,14.5260564 15.6762721,14.285523 L15.6762721,13.5201897 C15.6762721,13.2796564 15.4678727,13.0828564 15.2131622,13.0828564 L5.719408,13.0828564 C5.46469753,13.0828564 5.25629804,13.2796564 5.25629804,13.5201897 L5.25629804,14.285523 C5.25629804,14.5260564 5.46469753,14.7228564 5.719408,14.7228564 Z" id="Path"></path>
                        <path d="M5.719408,8.63296039 L15.2131622,8.63296039 C15.4678727,8.63296039 15.6762721,8.43616039 15.6762721,8.19562706 L15.6762721,7.43029373 C15.6762721,7.18976039 15.4678727,6.99296039 15.2131622,6.99296039 L5.719408,6.99296039 C5.46469753,6.99296039 5.25629804,7.18976039 5.25629804,7.43029373 L5.25629804,8.19562706 C5.25629804,8.43616039 5.46469753,8.63296039 5.719408,8.63296039 C5.719408,8.63296039 5.719408,8.63296039 5.719408,8.63296039 Z" id="Path"></path>
                        <path d="M5.719408,2.56621992 L15.2131622,2.56621992 C15.4678727,2.56621992 15.6762721,2.36941992 15.6762721,2.12888659 L15.6762721,1.36355325 C15.6762721,1.12301992 15.4678727,0.92621992 15.2131622,0.92621992 L5.719408,0.92621992 C5.46469753,0.92621992 5.25629804,1.12301992 5.25629804,1.36355325 L5.25629804,2.12888659 C5.25629804,2.36941992 5.46469753,2.56621992 5.719408,2.56621992 C5.719408,2.56621992 5.719408,2.56621992 5.719408,2.56621992 Z" id="Path"></path>
                    </g>
                </g>
            </g>
        </g>
    </g>
</svg>