<?xml version="1.0" encoding="UTF-8"?>
<svg width="18px" height="15px" viewBox="0 0 18 15" version="1.1" xmlns="http://www.w3.org/2000/svg" xmlns:xlink="http://www.w3.org/1999/xlink">

    <g id="Tefteri" stroke="none" stroke-width="1" fill="none" fill-rule="evenodd">
        <g id="19.00.00---Tefteri---Show" transform="translate(-608.000000, -410.000000)">
            <g id="Group-2" transform="translate(609.000000, 409.000000)">
                <g id="camera_1" transform="translate(0.000000, 1.911765)">
                    <path d="M15.0588235,2.52235294 C15.3872588,2.56635137 15.6233318,2.86040725 15.5952941,3.19058824 L15.5952941,11.9435294 C15.628685,12.2771845 15.3912382,12.5771174 15.0588235,12.6211765 L1.10117647,12.6211765 C0.769887399,12.5771745 0.535217635,12.2754562 0.574117647,11.9435294 L0.574117647,3.19058824 C0.540692422,2.86211054 0.773950144,2.56637307 1.10117647,2.52235294 L4.79058824,2.52235294 C4.88470588,2.52235294 5.09176471,2.31529412 5.12941176,2.02352941 C5.16705882,1.73176471 5.23294118,1.24235294 5.23294118,1.24235294 C5.30823529,0.903529412 5.46823529,0.574117647 5.76941176,0.574117647 L10.5505882,0.574117647 C10.8517647,0.574117647 11.0117647,0.894117647 11.0870588,1.24235294 C11.0870588,1.24235294 11.1905882,1.91058824 11.2752941,2.18352941 C11.36,2.45647059 11.4447059,2.48470588 11.52,2.48470588 L15.0588235,2.52235294 Z" id="Path" stroke="#3C4858" stroke-width="1.21"></path>
                    <path d="M4.08470588,2.25890622 L4.08470588,1.72409196 C4.08470588,1.40118524 3.92470588,1.13882353 3.71764706,1.13882353 L1.50588235,1.13882353 C1.29882353,1.13882353 1.13882353,1.40118524 1.13882353,1.72409196 L1.13882353,2.25890622" id="Path" fill="#EDD263"></path>
                    <path d="M12.2917647,4.14117647 C12.2917647,4.45305492 12.0389373,4.70588235 11.7270588,4.70588235 C11.5781404,4.70590374 11.4354539,4.64610951 11.3310412,4.53992713 C11.2266285,4.43374475 11.1692407,4.29007353 11.1717647,4.14117647 C11.1691894,3.99312883 11.226866,3.85038635 11.3315674,3.74568502 C11.4362687,3.6409837 11.5790112,3.58330702 11.7270588,3.58588235 C11.8759559,3.58335831 12.0196271,3.64074617 12.1258095,3.74515885 C12.2319919,3.84957152 12.2917861,3.99225802 12.2917647,4.14117647" id="Path" fill="#EDD263"></path>
                    <path d="M11.4917647,7.37882353 C11.4955739,8.692986 10.7068731,9.87986696 9.49383686,10.3854168 C8.28080063,10.8909666 6.88264184,10.61549 5.95203702,9.68758258 C5.02143219,8.75967516 4.74189823,7.3623219 5.24392478,6.1478233 C5.74595133,4.93332469 6.93053789,4.14118199 8.24470588,4.14117647 C9.10501282,4.13867557 9.93094098,4.47867946 10.5401547,5.08612734 C11.1493684,5.69357522 11.4917683,6.51851296 11.4917647,7.37882353 Z" id="Path" stroke="#EDD263" stroke-width="1.36"></path>
                </g>
            </g>
        </g>
    </g>
</svg>