<?xml version="1.0" encoding="UTF-8"?>
<svg width="18px" height="13px" viewBox="0 0 18 13" version="1.1" xmlns="http://www.w3.org/2000/svg" xmlns:xlink="http://www.w3.org/1999/xlink">
    <g id="Tefteri" stroke="none" stroke-width="1" fill="none" fill-rule="evenodd">
        <g id="Tefteri---Code-Snippet" transform="translate(-729.000000, -267.000000)" fill="#3C4858" stroke="#3C4858" stroke-width="0.4">
            <g id="Group-9" transform="translate(351.085938, 265.500000)">
                <g id="code-snippet" transform="translate(378.914062, 1.000000)">
                    <path d="M10,1.16 L9.43,1 C9.36650909,0.97089899 9.29349091,0.97089899 9.23,1 C9.16129363,1.03419447 9.11038531,1.09601171 9.09,1.17 L5.83,12.49 C5.80483598,12.5611746 5.80483598,12.6388254 5.83,12.71 C5.86943815,12.7721396 5.92969809,12.8182207 6,12.84 L6.55,12.99 C6.61238652,13.0237842 6.68761348,13.0237842 6.75,12.99 C6.81653052,12.9531306 6.86657216,12.8923657 6.89,12.82 L10.17,1.51 C10.1953001,1.44228606 10.1953001,1.36771394 10.17,1.3 C10.1310361,1.23524386 10.0710259,1.18582369 10,1.16 Z" id="Path"></path>
                    <path d="M5.09,3.37 C5.09,3.29063369 5.05747216,3.21473539 5,3.16 L4.56,2.73 C4.51075276,2.67079816 4.43696992,2.63759588 4.36,2.64 C4.28386887,2.64155657 4.21165529,2.67405268 4.16,2.73 L0.09,6.8 C0.034052684,6.85165529 0.00155657382,6.92386887 1.95183496e-16,7 C-0.00240412268,7.07696992 0.0307981574,7.15075276 0.09,7.2 L4.16,11.28 C4.21165529,11.3359473 4.28386887,11.3684434 4.36,11.37 C4.43696992,11.3724041 4.51075276,11.3392018 4.56,11.28 L5,10.84 C5.05643195,10.7888209 5.08861643,10.7161831 5.08861643,10.64 C5.08861643,10.5638169 5.05643195,10.4911791 5,10.44 L1.57,7 L5,3.57 C5.05594732,3.51834471 5.08844343,3.44613113 5.09,3.37 Z" id="Path"></path>
                    <path d="M15.91,6.8 L11.84,2.73 C11.7883447,2.67405268 11.7161311,2.64155657 11.64,2.64 C11.5630301,2.63759588 11.4892472,2.67079816 11.44,2.73 L11,3.16 C10.9425278,3.21473539 10.91,3.29063369 10.91,3.37 C10.9115566,3.44613113 10.9440527,3.51834471 11,3.57 L14.44,7 L11,10.44 C10.9435681,10.4911791 10.9113836,10.5638169 10.9113836,10.64 C10.9113836,10.7161831 10.9435681,10.7888209 11,10.84 L11.44,11.28 C11.4892472,11.3392018 11.5630301,11.3724041 11.64,11.37 C11.7161311,11.3684434 11.7883447,11.3359473 11.84,11.28 L15.91,7.2 C15.9692018,7.15075276 16.0024041,7.07696992 16,7 C15.9984434,6.92386887 15.9659473,6.85165529 15.91,6.8 Z" id="Path"></path>
                </g>
            </g>
        </g>
    </g>
</svg>