<?xml version="1.0" encoding="UTF-8"?>
<svg width="17px" height="16px" viewBox="0 0 17 16" version="1.1" xmlns="http://www.w3.org/2000/svg" xmlns:xlink="http://www.w3.org/1999/xlink">
    <g id="Tefteri" stroke="none" stroke-width="1" fill="none" fill-rule="evenodd">
        <g id="19.20.00---Tefteri---Edit-Copy" transform="translate(-695.000000, -266.000000)" fill="#3C4858">
            <g id="Group-2" transform="translate(296.000000, 176.000000)">
                <g id="Group-9" transform="translate(56.085938, 89.000000)">
                    <g id="noun_Increase-Indent_1654836" transform="translate(342.914062, 1.140625)">
                        <path d="M16.3504646,9.28666874 L8.99028569,9.28666874 C8.71860123,9.28666874 8.49631395,9.50895602 8.49631395,9.78064048 L8.49631395,10.645091 C8.49631395,10.9167755 8.71860123,11.1390628 8.99028569,11.1390628 L16.3504646,11.1390628 C16.6221491,11.1390628 16.8444364,10.9167755 16.8444364,10.645091 L16.8444364,9.78064048 C16.8444364,9.50895602 16.6221491,9.28666874 16.3504646,9.28666874 Z" id="Path"></path>
                        <path d="M16.3504646,4.66803296 L8.99028569,4.66803296 C8.71860123,4.66803296 8.49631395,4.89032024 8.49631395,5.1620047 L8.49631395,6.02645524 C8.49631395,6.2981397 8.71860123,6.52042699 8.99028569,6.52042699 L16.3504646,6.52042699 C16.6221491,6.52042699 16.8444364,6.2981397 16.8444364,6.02645524 L16.8444364,5.1620047 C16.8444364,4.89032024 16.6221491,4.66803296 16.3504646,4.66803296 Z" id="Path"></path>
                        <path d="M0.642163264,15.7823971 L16.3257661,15.7823971 C16.5974505,15.7823971 16.8197378,15.5601099 16.8197378,15.2884254 L16.8197378,14.4239748 C16.8197378,14.1522904 16.5974505,13.9300031 16.3257661,13.9300031 L0.642163264,13.9300031 C0.370478806,13.9300031 0.148191522,14.1522904 0.148191522,14.4239748 L0.148191522,15.2884254 C0.148191522,15.5601099 0.370478806,15.7823971 0.642163264,15.7823971 C0.642163264,15.7823971 0.642163264,15.7823971 0.642163264,15.7823971 Z" id="Path"></path>
                        <path d="M0.642163264,1.87709262 L16.3257661,1.87709262 C16.5974505,1.87709262 16.8197378,1.65480533 16.8197378,1.38312088 L16.8197378,0.518670328 C16.8197378,0.246985871 16.5974505,0.0246985871 16.3257661,0.0246985871 L0.642163264,0.0246985871 C0.370478806,0.0246985871 0.148191522,0.246985871 0.148191522,0.518670328 L0.148191522,1.38312088 C0.148191522,1.65480533 0.370478806,1.87709262 0.642163264,1.87709262 C0.642163264,1.87709262 0.642163264,1.87709262 0.642163264,1.87709262 Z" id="Path"></path>
                        <path d="M2.27227001,11.8059246 C2.64274882,12.1764034 3.21081632,12.1764034 3.58129512,11.8059246 L6.81681003,8.57040971 C7.18728884,8.19993091 7.18728884,7.6318634 6.81681003,7.2613846 L3.58129512,4.0011711 C3.21081632,3.65539089 2.61805023,3.68008947 2.27227001,4.05056828 C1.95118838,4.3963485 1.95118838,4.964416 2.27227001,5.31019622 L4.89032024,7.90354786 L2.27227001,10.4968995 C1.92648979,10.8426797 1.92648979,11.4354458 2.27227001,11.8059246 C2.27227001,11.8059246 2.27227001,11.8059246 2.27227001,11.8059246 Z" id="Path" transform="translate(4.553802, 7.920169) scale(-1, 1) translate(-4.553802, -7.920169) "></path>
                    </g>
                </g>
            </g>
        </g>
    </g>
</svg>