<?xml version="1.0" encoding="UTF-8"?>
<svg width="16px" height="12px" viewBox="0 0 16 12" version="1.1" xmlns="http://www.w3.org/2000/svg" xmlns:xlink="http://www.w3.org/1999/xlink">
    <g id="Tefteri" stroke="none" stroke-width="1" fill="none" fill-rule="evenodd">
        <g id="Tefteri---Code-Snippet" transform="translate(-579.000000, -362.000000)">
            <g id="Group-7" transform="translate(563.000000, 257.000000)">
                <g id="Group-2" transform="translate(16.500000, 105.500000)">
                    <path d="M1.72822571,10.5718395 L0.176470588,10.5718395 L0.176470588,0.865957101 L1.6293878,0.865957101 L1.6293878,1.31072768 C1.96543668,1.01421396 2.3706721,0.865957101 2.83521026,0.865957101 L2.95381574,0.865957101 C3.86312448,0.865957101 4.49568707,1.12293566 4.87127112,1.64677656 C5.29627411,1.13281945 5.85965017,0.865957101 6.56139931,0.865957101 L6.68000479,0.865957101 C7.47070804,0.865957101 8.05385168,1.06363291 8.42943573,1.46886833 C8.80501977,1.87410374 8.99281179,2.58573666 8.99281179,3.60376709 L8.99281179,10.5718395 L7.44105667,10.5718395 L7.44105667,3.58399951 C7.44105667,3.05027482 7.38175392,2.68457457 7.27303223,2.47701497 C7.16431053,2.26945536 6.91721577,2.17061746 6.52186414,2.17061746 L6.41314245,2.17061746 C5.75092848,2.17061746 5.40499581,2.59562045 5.36546064,3.45551023 L5.36546064,10.5718395 L3.81370552,10.5718395 L3.81370552,3.58399951 C3.81370552,3.04039103 3.74451899,2.66480699 3.61602971,2.46713118 C3.48754043,2.26945536 3.25032946,2.17061746 2.91428058,2.17061746 L2.79567509,2.17061746 C2.12357733,2.17061746 1.76776087,2.53631771 1.72822571,3.277602 L1.72822571,10.5718395 Z" id="Path" fill="#3C4858"></path>
                    <path d="M14.6960644,0.568819282 L14.1931232,0.427642812 C14.1371019,0.40196545 14.0726741,0.40196545 14.0166527,0.427642812 C13.9560294,0.457814407 13.9111103,0.512359027 13.8931232,0.577642812 L11.0166527,10.5658781 C10.9944491,10.6286792 10.9944491,10.6971946 11.0166527,10.7599958 C11.051451,10.8148248 11.1046216,10.8554846 11.1666527,10.8747016 L11.6519468,11.0070546 C11.7069937,11.0368642 11.7733704,11.0368642 11.8284174,11.0070546 C11.8871208,10.9745227 11.9312752,10.9209067 11.9519468,10.8570546 L14.8460644,0.877642812 C14.8683881,0.817895215 14.8683881,0.75209629 14.8460644,0.692348694 C14.8116845,0.635210923 14.7587343,0.591604895 14.6960644,0.568819282 Z" id="Path" stroke="#F2DD86" stroke-width="0.2" fill="#EDD263"></path>
                </g>
            </g>
        </g>
    </g>
</svg>