<?xml version="1.0" encoding="UTF-8"?>
<svg width="11px" height="15px" viewBox="0 0 11 15" version="1.1" xmlns="http://www.w3.org/2000/svg" xmlns:xlink="http://www.w3.org/1999/xlink">
    <g id="Tefteri" stroke="none" stroke-width="1" fill="none" fill-rule="evenodd">
        <g id="19.00.00---Tefteri---Show" transform="translate(-514.000000, -266.000000)" fill="#3C4858">
            <g id="Group-9" transform="translate(351.085938, 265.500000)">
                <g id="Group-8" transform="translate(161.914062, 0.000000)">
                    <path d="M10.9826041,1.94577062 L10.9825814,1.94563681 C9.64585326,0.876634454 7.70067254,1.06789493 6.59775059,2.37677659 L5.67482777,3.48139633 C5.49446832,3.69726499 5.44297387,3.99295648 5.53974189,4.25708668 C5.63650991,4.52121688 5.86683903,4.71365812 6.1439665,4.76191966 C6.42109397,4.81018119 6.70291754,4.70693094 6.88327699,4.49106228 L7.80624129,3.38630338 C8.07856173,3.06137969 8.47070618,2.86039001 8.89349588,2.82904201 C9.31628557,2.79769401 9.73378396,2.93865224 10.0510465,3.21986094 C10.679155,3.80355983 10.7369209,4.77810711 10.1821654,5.43191982 L8.26327489,7.72931413 L8.2456118,7.74886128 C8.14311595,7.86775252 8.02300483,7.97023364 7.88946117,8.05273588 C7.25288198,8.44764917 6.42587121,8.33710347 5.91536282,7.78886013 C5.61875542,7.47166663 5.12134115,7.45448783 4.80355725,7.75046259 C4.48577334,8.04643736 4.46760342,8.54381641 4.76294437,8.86218945 C5.48631812,9.63838144 6.55228424,9.99753643 7.59788516,9.81736345 C7.75886775,9.78906652 7.91745973,9.7485422 8.07228344,9.69614252 C8.6191605,9.51161942 9.10426792,9.1792796 9.47384368,8.73595461 L11.3879478,6.44497253 C11.9377969,5.78160055 12.2003392,4.92631237 12.1173795,4.06869115 C12.0415418,3.23677945 11.6321998,2.47098858 10.9826041,1.94577062 Z" id="Path" transform="translate(8.342611, 5.558680) rotate(-18.000000) translate(-8.342611, -5.558680) "></path>
                    <path d="M6.68759269,11.6301352 L5.8627709,12.6173944 C5.3179474,13.2795574 4.34859526,13.3959114 3.66254361,12.8814936 C3.32939527,12.6193148 3.11644682,12.2335405 3.07213719,11.8119219 C3.02782756,11.3903034 3.15592402,10.9686872 3.42728875,10.6429776 L5.3792119,8.30662951 L5.39357921,8.29058019 C5.49608137,8.17172102 5.6162014,8.06928035 5.74975259,7.9868287 C6.32383929,7.62880322 7.06303513,7.68044597 7.58176215,8.11481914 C7.64232332,8.16539249 7.6990188,8.22042273 7.75137458,8.27944977 C7.90310757,8.45112576 8.1221684,8.54808897 8.35126638,8.54498076 C8.5776381,8.54177377 8.79136245,8.44003193 8.93657945,8.26634697 L8.94600244,8.25501049 C9.19499842,7.95996401 9.18936561,7.52678497 8.93278189,7.23831276 C8.32628187,6.55153225 7.45027948,6.16361147 6.5341171,6.17611025 C5.61795471,6.18860904 4.75286083,6.60028281 4.16532191,7.30335304 L2.21884488,9.63331567 C1.12707358,10.9515133 1.28484227,12.8996663 2.57450041,14.025007 C3.2068761,14.570808 4.03325191,14.837395 4.86536741,14.7640357 C4.9635456,14.7561149 5.06096999,14.7436388 5.15764057,14.7266073 C5.90612296,14.5955136 6.58455701,14.2050857 7.07395924,13.6237967 L7.89603656,12.6398025 C8.17484848,12.3060984 8.13034963,11.8095561 7.79664559,11.5307442 C7.46294155,11.2519323 6.96639926,11.2964311 6.68758734,11.6301352 L6.68759269,11.6301352 Z" id="Path" transform="translate(5.311164, 10.475902) rotate(-18.000000) translate(-5.311164, -10.475902) "></path>
                </g>
            </g>
        </g>
    </g>
</svg>