<?xml version="1.0" encoding="UTF-8"?>
<svg width="17px" height="16px" viewBox="0 0 17 16" version="1.1" xmlns="http://www.w3.org/2000/svg" xmlns:xlink="http://www.w3.org/1999/xlink">
    <g id="Tefteri" stroke="none" stroke-width="1" fill="none" fill-rule="evenodd">
        <g id="19.00.00---Tefteri---Show" transform="translate(-473.000000, -266.000000)" fill="#3C4858">
            <g id="Group-9" transform="translate(352.085938, 265.000000)">
                <g id="strikethrough" transform="translate(120.914062, 0.500000)">
                    <path d="M8.20923077,14.3015385 C10.2646154,14.3015385 11.2984615,13.5876923 11.2984615,12.1723077 C11.3285137,11.7936461 11.2517609,11.4141463 11.0769231,11.0769231 C10.8885628,10.7616388 10.632039,10.4924991 10.3261538,10.2892308 C10.0017267,10.0452648 9.64564757,9.84652295 9.26769231,9.69846154 L8.03692308,9.21846154 C7.54461538,9.04615385 7.05230769,8.86153846 6.57230769,8.64 C6.12624651,8.43294523 5.71185237,8.16358904 5.34153846,7.84 C4.99690177,7.54078041 4.71998331,7.17155579 4.52923077,6.75692308 C4.32061078,6.27584613 4.21979113,5.75494457 4.23384615,5.23076923 C4.1550107,4.10710511 4.61123602,3.01216435 5.46461538,2.27692308 C6.46322139,1.54165072 7.68436112,1.17226682 8.92307692,1.23076923 C9.70628089,1.21800966 10.4879302,1.30485959 11.2492308,1.48923077 C11.7890824,1.61897503 12.3072865,1.82625664 12.7876923,2.10461538 L12.1476923,3.69230769 C11.7590547,3.47247803 11.3459769,3.29898534 10.9169231,3.17538462 C10.2813077,2.99139128 9.621589,2.90425861 8.96,2.91692308 C8.60259813,2.91257039 8.24633869,2.95813846 7.90153846,3.05230769 C7.59527155,3.11310154 7.30565217,3.23902301 7.05230769,3.42153846 C6.51182528,3.72350656 6.18795511,4.30456775 6.21538462,4.92307692 C6.20191053,5.25322054 6.27849026,5.58081164 6.43692308,5.87076923 C6.6003431,6.13839669 6.81339379,6.37233469 7.06461538,6.56 C7.36225231,6.76728683 7.67970136,6.94456357 8.01230769,7.08923077 C8.41329237,7.27921712 8.82413337,7.44766193 9.24307692,7.59384615 C9.84615385,7.84 10.4123077,8.07384615 10.9169231,8.32 C11.3711273,8.54382991 11.786627,8.83883467 12.1476923,9.19384615 C12.5282271,9.53280679 12.8269923,9.95360287 13.0215385,10.4246154 C13.2348083,10.969315 13.3393396,11.550509 13.3292308,12.1353846 C13.3996871,13.2455451 12.9099939,14.3173264 12.0246154,14.9907692 C10.8911753,15.7203116 9.55467553,16.069526 8.20923077,15.9876923 C7.69440808,15.9879729 7.18024157,15.9509529 6.67076923,15.8769231 C6.25600504,15.8138377 5.84510386,15.7275485 5.44,15.6184615 C5.11618766,15.5317069 4.79938939,15.4206218 4.49230769,15.2861538 L3.90153846,14.9907692 L4.49230769,13.3661538 C4.95169264,13.6008276 5.42911246,13.7983806 5.92,13.9569231 C6.66053529,14.1900455 7.43288305,14.3063129 8.20923077,14.3015385 Z" id="Path"></path>
                    <g id="Path_1252" transform="translate(0.000000, 7.384615)">
                        <path d="M16.1230769,2.00615385 L1.10769231,2.00615385 C0.903161119,2.00618045 0.707180765,1.92409778 0.563716967,1.77832005 C0.42025317,1.63254232 0.341316493,1.43527382 0.344615385,1.23076923 C0.344615385,0.809333483 0.68625656,0.467692308 1.10769231,0.467692308 L16.1230769,0.467692308 C16.5445127,0.467692308 16.8861538,0.809333483 16.8861538,1.23076923 C16.8894527,1.43527382 16.8105161,1.63254232 16.6670523,1.77832005 C16.5235885,1.92409778 16.3276081,2.00618045 16.1230769,2.00615385 Z" id="Path"></path>
                    </g>
                </g>
            </g>
        </g>
    </g>
</svg>