<?xml version="1.0" encoding="UTF-8"?>
<svg width="19px" height="15px" viewBox="0 0 19 15" version="1.1" xmlns="http://www.w3.org/2000/svg" xmlns:xlink="http://www.w3.org/1999/xlink">
    <g id="Tefteri" stroke="none" stroke-width="1" fill="none" fill-rule="evenodd">
        <g id="19.10.00---Tefteri---Table" transform="translate(-702.000000, -266.000000)" fill="#3C4858" fill-rule="nonzero">
            <g id="Group-9" transform="translate(351.085938, 265.500000)">
                <path d="M363.448463,1 L351.77043,1 L351.77043,15 L368.92632,15 L368.92632,1 L363.448463,1 Z M357.145983,13.7599646 L353.010465,13.7599646 L353.010465,11.3666962 L357.145983,11.3666962 L357.145983,13.7599646 Z M357.145983,10.1266608 L353.010465,10.1266608 L353.010465,7.27457927 L357.145983,7.27457927 L357.145983,10.1266608 Z M357.145983,6.03144376 L353.010465,6.03144376 L353.010465,3.31266608 L357.145983,3.31266608 L357.145983,6.03144376 Z M362.208428,13.7599646 L358.386019,13.7599646 L358.386019,11.3666962 L362.208428,11.3666962 L362.208428,13.7599646 Z M362.208428,10.1266608 L358.386019,10.1266608 L358.386019,7.27457927 L362.208428,7.27457927 L362.208428,10.1266608 Z M362.208428,6.03144376 L358.386019,6.03144376 L358.386019,3.31266608 L362.208428,3.31266608 L362.208428,6.03144376 Z M367.686284,13.7599646 L363.448463,13.7599646 L363.448463,11.3666962 L367.686284,11.3666962 L367.686284,13.7599646 Z M367.686284,10.1266608 L363.448463,10.1266608 L363.448463,7.27457927 L367.686284,7.27457927 L367.686284,10.1266608 Z M367.686284,6.03144376 L363.448463,6.03144376 L363.448463,3.31266608 L367.686284,3.31266608 L367.686284,6.03144376 Z" id="Shape"></path>
            </g>
        </g>
    </g>
</svg>