<?xml version="1.0" encoding="UTF-8"?>
<svg width="11px" height="17px" viewBox="0 0 11 17" version="1.1" xmlns="http://www.w3.org/2000/svg" xmlns:xlink="http://www.w3.org/1999/xlink">
    <g id="Tefteri" stroke="none" stroke-width="1" fill="none" fill-rule="evenodd">
        <g id="19.20.00---Tefteri---Edit-Copy" transform="translate(-728.000000, -266.000000)" fill="#3C4858">
            <g id="Group-2" transform="translate(296.000000, 176.000000)">
                <g id="Group-9" transform="translate(56.085938, 89.000000)">
                    <g id="noun_back_1947944" transform="translate(375.914062, 1.140625)">
                        <path d="M0.3,2.65 L4.28333333,0.15 C4.58333333,-0.0333333333 4.98333333,0.183333333 4.98333333,0.533333333 L4.98333333,1.9 C8.18333333,2.6 10.5666667,5.45 10.5666667,8.83333333 C10.5666667,12.5833333 7.63333333,15.6666667 3.95,15.9166667 C3.68333333,15.9333333 3.46666667,15.7166667 3.46666667,15.4666667 L3.46666667,14.1 C3.46666667,13.8666667 3.65,13.6666667 3.88333333,13.65 C6.36666667,13.4333333 8.3,11.3666667 8.3,8.83333333 C8.3,6.7 6.9,4.88333333 4.98333333,4.25 L4.98333333,5.51666667 C4.98333333,5.86666667 4.6,6.08333333 4.28333333,5.9 L0.3,3.4 C0.0166666667,3.23333333 0.0166666667,2.83333333 0.3,2.65 Z" id="Path"></path>
                    </g>
                </g>
            </g>
        </g>
    </g>
</svg>