<?xml version="1.0" encoding="UTF-8"?>
<svg width="16px" height="16px" viewBox="0 0 16 16" version="1.1" xmlns="http://www.w3.org/2000/svg" xmlns:xlink="http://www.w3.org/1999/xlink">

    <g id="Tefteri" stroke="none" stroke-width="1" fill="none" fill-rule="evenodd">
        <g id="19.00.00---Tefteri---Show" transform="translate(-609.000000, -312.000000)" fill-rule="nonzero">
            <g id="Group-4" transform="translate(609.000000, 311.000000)">
                <g id="Upload_Active" transform="translate(0.000000, 0.900000)">
                    <path d="M15.2,15.2 L0.8,15.2 C0.3581722,15.2 5.41083001e-17,14.8418278 0,14.4 L0,10.4 L1.6,10.4 L1.6,13.6 L14.4,13.6 L14.4,10.4 L16,10.4 L16,14.4 C16,14.8418278 15.6418278,15.2 15.2,15.2 Z" id="Shape" fill="#3C4858"></path>
                    <path d="M12.568,5.032 L8.568,1.032 C8.41778672,0.880549879 8.21331003,0.795361341 8,0.795361341 C7.78668997,0.795361341 7.58221328,0.880549879 7.432,1.032 L3.432,5.032 C3.11830227,5.34569774 3.11830227,5.85430226 3.43200001,6.16799999 C3.74569774,6.48169773 4.25430226,6.48169773 4.568,6.168 L7.2,3.528 L7.2,10.4 C7.2,10.8418278 7.5581722,11.2 8,11.2 C8.4418278,11.2 8.8,10.8418278 8.8,10.4 L8.8,3.528 L11.432,6.168 C11.5822133,6.31945012 11.78669,6.40463866 12,6.40463866 C12.21331,6.40463866 12.4177867,6.31945012 12.568,6.168 C12.7194501,6.01778672 12.8046387,5.81331003 12.8046387,5.6 C12.8046387,5.38668997 12.7194501,5.18221328 12.568,5.032 Z" id="Shape" fill="#EDD263"></path>
                </g>
            </g>
        </g>
    </g>
</svg>